<?xml version="1.0" standalone="no"?>
<!DOCTYPE svg PUBLIC "-//W3C//DTD SVG 1.1//EN" "http://www.w3.org/Graphics/SVG/1.1/DTD/svg11.dtd" >
<svg xmlns="http://www.w3.org/2000/svg">
<metadata>Generated by IcoMoon</metadata>
<defs>
<font id="icomoon" horiz-adv-x="512">
<font-face units-per-em="512" ascent="480" descent="-32" />
<missing-glyph horiz-adv-x="512" />
<glyph unicode="&#x20;" d="" horiz-adv-x="256" />
<glyph unicode="&#xcc51;" d="M245.459 258.635v-216.847l-185.224 66.259v215.341l170.165-60.236zM268.047 258.635v-216.847l183.717 66.259v215.341l-170.164-60.236zM343.341 303.812l-84.329-30.118h-4.518l-13.553 6.024-128 45.176-43.671 16.565 84.329 30.117 100.894-36.141zM444.236 339.953l-7.529-3.012-67.764-24.094-114.447 40.659-75.294 27.106 67.764 24.094 7.53 3.012h1.506z" />
<glyph unicode="&#xe600;" d="M197.27 205.93h34.636v43.671h43.671v34.635h-43.671v43.671h-34.636v-43.671h-45.177v-34.635h45.177zM210.823 419.764c-82.823 0-150.588-67.764-150.588-150.588s67.764-149.083 149.083-149.083c30.118 0 58.73 9.036 82.823 25.6l108.423-108.423c12.047-12.047 30.118-12.047 42.164 0s12.047 30.118 0 42.164l-108.423 108.423c15.059 24.094 25.6 52.706 25.6 82.824 0 81.317-66.259 147.577-149.083 149.082zM212.329 157.741c-60.236 0-109.93 49.694-109.93 109.93s49.694 109.93 109.93 109.93c60.236 0 109.93-49.694 109.93-109.93 0-60.236-49.694-109.93-109.93-109.93z" />
<glyph unicode="&#xe601;" d="M418.635 111.059l-49.694-49.694-112.941 111.435-112.941-112.941-49.694 49.694 112.941 112.941-112.941 112.941 49.694 49.694 112.941-112.941 112.941 112.941 49.694-49.694-112.941-111.435 112.941-112.941z" />
<glyph unicode="&#xe602;" d="M207.812 114.070l28.612-84.329-72.282 51.2-72.282-51.2 27.106 84.329-72.282 52.706h88.847l28.612 84.329 27.106-84.329h88.847l-57.224-42.164zM167.153 317.365v-34.636c12.047-1.506 22.588-10.541 25.6-21.083l21.083-63.247h66.259c18.070 0 31.623-13.553 31.623-31.623 0-10.541-6.024-21.082-13.553-25.6l-52.706-39.153 7.53-25.6 129.506-43.671v227.388l-215.341 57.223zM423.153 282.73v-200.283l42.164-16.565v224.377zM343.341 323.388v24.094c0 12.047-1.506 31.624-10.541 46.683 1.506 1.506 3.012 4.518 4.517 6.024 4.517 4.518 10.541 6.024 19.577 4.518 31.623-4.518 30.118-49.694 30.118-52.706v-28.612l16.565-3.012v33.13c1.506 21.083-6.024 63.247-43.671 67.764-12.047 1.506-22.588-1.506-31.623-9.035-1.506-1.506-3.012-3.012-4.517-4.518-6.024 4.518-13.553 7.53-22.588 9.036-12.047 1.506-22.588-1.506-31.623-9.036-19.577-16.564-19.577-49.694-19.577-51.2v-30.118h1.506l-4.518-3.012-55.718-3.012 191.247-51.2 27.106 19.577 48.188 7.53-114.447 27.106zM328.283 347.482v-19.577l-58.73 13.553-4.517-3.012v16.564c0 7.529 3.012 28.612 13.553 39.153 4.517 4.517 12.047 6.024 19.577 4.517 7.529-1.506 12.047-3.012 16.565-7.529-6.024-15.059-6.024-31.623-6.024-31.623v-19.577l16.565-3.012v22.588c0 3.012 0 7.529 1.506 12.047 1.506-10.541 1.506-22.588 1.506-24.094z" />
<glyph unicode="&#xe603;" d="M371.953 276.706v12.047c16.565 9.036 27.106 25.6 27.106 45.176 0 28.612-22.588 51.2-51.2 51.2-28.612 0-51.2-22.588-51.2-51.2 0-19.577 10.541-36.141 27.106-45.176v-12.047c-33.13-6.024-60.236-25.6-76.8-49.694 42.164-15.059 73.788-49.694 79.812-91.859 63.247-4.517 135.53 10.541 135.53 42.164 1.506 49.694-37.647 90.353-90.353 99.388zM307.2 114.070c-6.024 42.164-37.647 76.8-79.812 91.859-7.53 3.012-13.553 4.517-21.083 6.024v13.553c18.071 9.036 30.118 28.612 30.118 51.2 0 31.623-25.6 57.224-57.224 57.224-33.13 0-58.73-25.6-58.73-57.224 0-22.588 12.047-40.659 30.118-51.2v-13.553c-58.73-10.541-102.4-57.224-102.4-112.941 0-64.753 259.012-64.753 259.012 0 1.506 4.517 0 10.541 0 15.059z" />
<glyph unicode="&#xe604;" d="M60.236 418.259v-390.024h391.529v390.024h-391.529zM173.177 261.647c0 3.012 0 6.024 0 9.036 0 16.565-1.506 34.635 4.518 51.2 4.518 12.047 13.553 16.565 25.6 16.565 28.612 0 30.118-28.612 30.118-58.73h82.823c13.553 0 22.588-13.553 22.588-33.129 0-19.577-21.082-24.094-31.623-24.094h-73.788c0-12.047-1.506-22.588-1.506-28.612 0-13.553 4.518-27.106 36.141-27.106h43.671c10.541 0 27.106-9.036 27.106-31.623 0-24.094-22.588-25.6-31.623-25.6-7.529 0-52.706 1.506-63.247 1.506-12.047 0-70.776 18.070-70.776 84.329 0 12.047 0 22.588 0 34.636 1.506 10.541 0 21.083 0 31.624z" />
<glyph unicode="&#xe605;" d="M475.051 356.8c-16.429-6.845-32.858-12.322-52.025-13.691 17.798 10.952 32.858 28.75 39.703 49.287-17.798-10.952-36.965-17.798-57.501-21.905-16.429 17.798-39.703 28.751-64.346 28.751-49.287 0-90.358-39.703-90.358-90.358 0-6.845 1.369-13.691 2.738-20.536-75.299 4.107-141.014 41.072-186.194 94.466-8.215-13.691-12.322-28.751-12.322-45.179 0-31.488 16.429-58.87 39.704-75.299-15.059 0-28.751 4.107-41.072 10.952 0 0 0-1.37 0-1.37 0-43.81 31.489-79.406 72.561-87.62-6.845-1.37-15.059-2.738-23.274-2.738-5.477 0-10.953 0-16.429 1.37 10.953-35.596 45.179-61.608 83.513-62.978-30.119-24.644-69.823-38.334-112.264-38.334-6.845 0-15.059 0-21.905 1.37 39.703-26.013 87.621-41.072 138.276-41.072 165.658 0 256.016 136.906 256.016 256.017 0 4.107 0 8.214 0 10.952 17.798 15.060 32.858 30.12 45.179 47.918z" />
<glyph unicode="&#xe606;" d="M405.082 187.859c-1.506 7.529-1.506 12.047 1.506 18.070 6.024 12.047 4.517 19.577 0 28.612 0 0-15.059 27.106-37.647 28.612-1.506 0-3.012 0-4.517 0v0c0 0-1.506 0-1.506 0-16.565 0-34.635-4.517-51.2-3.012-9.036 0-18.070 1.506-25.6 4.518-9.036 4.517-7.529 6.024-7.529 13.553 0 3.012 12.047 27.106 12.047 27.106s7.529 16.564 9.036 21.082c10.541 18.071 9.036 45.177 3.012 64.753v0c0 0-4.517 21.083-31.623 25.6v0c0 0-1.506 0-1.506 0-1.506 0-4.517 0-6.024 0v0c0 0 0 0 0 0s0 0 0 0v0c0 0-3.012 0-1.506 0-6.024-3.012-4.517-12.047-4.517-16.565 0-3.012-1.506-6.024-1.506-9.036 0-4.517-4.518-18.070-7.53-24.094-10.541-19.577-16.565-42.164-33.13-57.224-18.071-15.059-33.13-37.647-40.659-60.236-3.012-9.036-7.53-18.071-13.553-27.106-3.012-10.541-51.2-16.565-60.236-18.070v-156.612c1.506 0 42.165 0 45.177 0 1.506-1.506 33.13-4.517 33.13-4.517 13.553-1.506 27.106-10.541 40.659-12.047 10.541-1.506 21.083-3.012 33.13-3.012 16.565 1.506 34.635 1.506 51.2 0 19.577 0 42.164-3.012 55.718 10.541 4.517 3.012 9.036 10.541 13.553 15.059 0 0 0 0 0 0 3.012 4.517 9.036 6.024 9.036 19.577 0 0 0 0 0 0 0 3.012 0 7.529 3.012 12.047 0 0 0 0 0 0v0c0 1.506 1.506 1.506 3.012 3.012 0 0 0 0 0 0 1.506 1.506 3.012 3.012 4.517 4.517 1.506 1.506 3.012 1.506 3.012 3.012 4.517 3.012 9.036 10.541 9.036 19.577 0 6.024-1.506 12.047-3.012 16.565-1.506 4.517-3.012 7.529-1.506 12.047 1.506 6.024 9.036 12.047 10.541 18.070 0 1.506 1.506 4.517 1.506 6.024 0 3.012 0 6.024-1.506 7.529-3.012 6.024-4.517 10.541-6.024 12.047z" />
<glyph unicode="&#xe607;" d="M60.236 406.212v-280.094h246.964l84.329-84.329v84.329h61.741v280.094h-393.036zM257.506 225.506h128v-28.612h-128v28.612zM128 282.73h257.506v-28.612h-257.506v28.612zM128 339.953h257.506v-28.612h-257.506v28.612z" />
<glyph unicode="&#xe608;" d="M121.977 228.518h51.2v-112.941h-51.2v112.941zM209.317 303.812h51.2v-189.741h-51.2v189.741zM295.153 266.164h51.2v-152.094h-51.2v152.094zM374.964 341.459h51.2v-227.388h-51.2v227.388zM85.835 89.976v277.082h-25.6v-301.176h391.529v24.094z" />
<glyph unicode="&#xe609;" d="M256 419.764l48.188-149.082h158.118l-128-93.365 48.188-149.082-126.494 91.859-126.494-91.859 48.188 149.082-128 93.365h158.118z" />
<glyph unicode="&#xe60a;" d="M275.577 252.612h-72.282v-183.718h-69.27v183.718h-73.788l108.424 112.941zM236.423 183.341h72.283v183.717h69.27v-183.717h73.788l-108.423-112.941z" />
<glyph unicode="&#xe60b;" d="M435.2 192.377c9.036 0 15.059 6.024 15.059 15.059v34.636c0 9.036-6.024 15.059-15.059 15.059h-22.588c-7.529 0-16.565 6.024-19.577 15.059l-7.529 18.070c-4.517 7.53-1.506 18.070 3.012 24.094l15.059 15.059c6.024 6.024 6.024 15.059 0 21.083l-22.588 24.094c-6.024 6.024-15.059 6.024-21.082 0l-15.059-15.059c-6.024-6.024-16.565-7.53-24.094-3.012l-18.070 7.53c-7.529 3.012-15.059 12.047-15.059 19.576v21.083c0 9.036-7.529 15.059-15.059 15.059h-34.636c-9.036 0-15.059-6.023-15.059-15.059v-22.588c0-9.036-6.024-16.565-15.059-19.577l-18.071-7.529c-7.53-4.518-18.071-1.506-24.094 3.012l-16.565 15.059c-3.012 7.529-13.553 7.529-18.071 1.506l-25.6-24.094c-6.023-6.024-6.023-15.059 0-21.083l16.564-16.564c6.023-6.024 7.529-16.565 3.012-24.094l-7.529-18.070c-3.012-7.53-12.047-15.059-19.576-15.059h-22.588c-9.035 0-15.059-6.024-15.059-15.059v-34.635c0-7.529 6.023-15.059 15.059-15.059h22.588c9.035 0 16.564-6.024 19.576-15.059l7.529-18.070c4.518-7.529 1.506-18.070-3.012-24.094l-16.564-13.553c-6.023-6.024-6.023-15.059 0-21.082l24.094-24.094c6.024-6.024 15.059-6.024 21.083 0l15.059 15.059c6.024 6.024 16.565 7.529 24.094 3.012l18.071-7.529c7.53-3.012 15.059-12.047 15.059-19.577v-22.588c0-7.529 6.024-15.059 15.059-15.059h34.636c7.529 0 15.059 7.529 15.059 15.059v22.588c0 7.529 6.024 16.565 15.059 19.577l18.070 7.529c7.529 4.517 18.070 1.506 24.094-3.012l15.059-15.059c6.024-6.024 15.059-6.024 21.082 0l24.094 24.094c6.024 6.024 6.024 15.059 0 21.082l-15.059 16.565c-6.024 6.024-7.529 16.565-3.012 24.094l7.529 18.070c3.012 7.529 12.047 15.059 19.577 15.059l21.082-1.506zM256 139.671c-46.683 0-84.329 37.647-84.329 84.329s37.647 84.329 84.329 84.329c46.683 0 84.329-37.647 84.329-84.329 0-46.683-37.647-84.329-84.329-84.329z" />
<glyph unicode="&#xe60c;" d="M442.729 83.953l-93.365 93.365c-1.506 1.506-3.012 1.506-4.517 3.012 16.565 24.094 25.6 52.706 25.6 84.329 0 85.836-69.27 155.106-155.106 155.106-85.835 0-155.106-69.27-155.106-155.106 0-85.836 69.27-155.106 155.106-155.106 31.624 0 60.236 9.036 84.329 25.6 1.506-1.506 1.506-3.012 3.012-3.012l93.365-93.365c6.024-6.024 15.059-9.036 22.588-9.036 9.036 0 16.565 3.012 22.588 9.036 13.553 10.541 13.553 31.623 1.506 45.176zM215.341 157.741c-58.73 0-106.918 48.188-106.918 106.918s48.188 106.918 106.918 106.918c58.73 0 106.918-48.188 106.918-106.918-1.506-58.73-48.188-106.918-106.918-106.918z" />
<glyph unicode="&#xe60d;" d="M60.236 419.764v-391.529h391.529v391.529h-391.529zM195.764 135.153c-13.553 0-25.6 12.047-25.6 25.6s12.047 25.6 25.6 25.6c13.553 0 25.6-12.047 25.6-25.6s-10.541-25.6-25.6-25.6zM260.517 135.153c0 24.094-9.036 46.683-25.6 64.753-18.071 16.565-40.659 25.6-64.753 25.6v37.647c70.776 0 128-57.224 128-128h-37.647zM325.271 135.153c0 85.836-69.271 156.612-155.106 156.612v37.647c106.918 0 192.753-85.836 192.753-192.753h-37.647z" />
<glyph unicode="&#xe60e;" d="M371.953 342.964l-21.082-12.047-25.6-13.553-97.882-51.2v60.236c-81.317-12.047-143.059-72.282-143.059-144.565 0-15.059 3.012-30.118 7.529-43.671-19.576 24.094-30.117 52.706-30.117 82.823 0 78.306 72.282 143.059 164.141 146.071v51.2l146.071-75.294zM144.565 105.036l21.083 12.047 25.6 13.553 97.882 51.2v-60.236c81.317 12.047 143.059 72.283 143.059 144.565 0 15.059-3.012 30.118-7.529 43.671 19.577-24.094 30.118-52.706 30.118-82.823 0-78.306-72.282-143.059-164.141-146.071v-52.706l-146.071 76.8z" />
<glyph unicode="&#xe60f;" d="M356.894 312.847v-43.67h45.176v-19.577h-45.176v-19.577h45.176v-18.071h-45.176v-19.577h45.176v-19.577h-45.176v-13.553h-173.177v-34.635h165.647l57.224-57.224v57.224h42.164v188.236zM325.271 371.577h-265.036v-188.236h40.659v-57.224l57.224 57.224h165.647v188.236zM204.8 225.506h-24.094v24.094h24.094v-24.094zM218.353 282.73c-6.024-4.518-13.553-9.036-15.059-18.071v-6.024h-21.083v7.529c1.506 13.553 7.53 19.577 13.553 24.094 6.024 4.517 12.047 9.035 12.047 16.564 0 9.036-4.518 13.553-13.553 13.553-12.047 0-16.565-9.035-16.565-21.082h-22.588c0 22.588 15.059 39.153 37.647 39.153 30.118 0 39.153-18.071 39.153-30.118 0-13.553-6.024-19.577-13.553-25.6z" />
<glyph unicode="&#xe610;" d="M451.764 44.8h-390.024c0 0-18.070 60.236 40.659 81.317 0 0 96.376 25.6 96.376 54.212 0 0 16.565-1.506 16.565 6.024 0 0-16.565 13.553-15.059 37.647 0 0-15.059 3.012-15.059 16.565 0 0-10.541 12.047-3.012 43.671 0 0-9.036 49.694 7.53 76.8 0 0 19.577 18.070 28.612 18.070 0 0 3.012 7.529 30.118 7.529 0 0 37.647 3.012 37.647-9.035 0 0 33.13-12.047 33.13-22.588 0 0 16.565-21.083 9.036-69.271 0 0 7.529-40.659-6.024-54.212 0 0-9.036-15.059-15.059-15.059 0 0 3.012-24.094-7.529-28.612 0 0 6.024-4.517 13.553-3.012 0 0 15.059-34.635 105.412-60.236 1.506-1.506 33.13-15.059 33.13-79.812z" />
<glyph unicode="&#xe611;" d="M210.823 419.764c-82.823 0-150.588-67.764-150.588-150.588s67.764-149.083 149.083-149.083c30.118 0 58.73 9.036 82.823 25.6l108.423-108.423c12.047-12.047 30.118-12.047 42.164 0s12.047 30.118 0 42.164l-108.423 108.423c15.059 24.094 25.6 52.706 25.6 82.824 0 81.317-66.259 147.577-149.083 149.082zM212.329 157.741c-60.236 0-109.93 49.694-109.93 109.93s49.694 109.93 109.93 109.93c60.236 0 109.93-49.694 109.93-109.93 0-60.236-49.694-109.93-109.93-109.93zM152.094 284.236h123.483v-34.636h-123.483v34.636z" />
<glyph unicode="&#xe612;" d="M256 416.753c-108.423 0-195.764-85.835-195.764-192.753s87.341-192.753 195.764-192.753c108.423 0 195.764 87.341 195.764 192.753s-87.341 192.753-195.764 192.753zM200.282 117.082v207.812l170.165-103.906-170.165-103.906z" />
<glyph unicode="&#xe613;" d="M60.236 419.764v-391.529h391.529v391.529h-391.529zM256 74.918c-15.059 0-28.612 1.506-42.165 6.024 6.024 9.036 12.047 21.082 15.059 31.623 1.506 6.024 10.541 40.659 10.541 40.659 4.518-10.541 19.577-18.070 36.141-18.070 48.188 0 79.812 43.671 79.812 102.4 0 43.671-37.647 85.835-94.87 85.835-70.776 0-106.918-51.2-106.918-93.365 0-25.6 9.036-48.188 30.118-57.224 3.012-1.506 6.024 0 7.53 3.012 0 3.012 3.012 9.036 3.012 12.047 1.506 4.517 0 4.517-1.506 9.036-6.024 7.529-10.541 16.565-10.541 28.612 0 37.647 28.612 70.776 73.788 70.776 40.659 0 61.741-24.094 61.741-57.223 0-43.67-19.577-79.812-46.683-79.812-15.059 0-27.106 13.553-24.094 28.612 4.518 19.577 13.553 39.153 13.553 52.706 0 12.047-6.024 22.588-19.577 22.588-16.565 0-28.612-16.565-28.612-39.153 0-13.553 4.518-24.094 4.518-24.094s-16.565-69.271-19.577-81.317c-3.012-12.047-3.012-24.094-3.012-34.635-52.706 22.588-88.847 75.294-88.847 137.036 0 82.823 66.259 149.082 149.082 149.082 82.823 0 149.082-66.259 149.082-149.082 1.506-79.812-64.753-146.071-147.577-146.071z" />
<glyph unicode="&#xe614;" d="M257.506 418.259c-108.423 0-197.27-87.341-197.27-195.764 0-81.317 48.188-149.082 117.459-180.706 0 13.553 0 30.118 3.012 45.176 4.518 16.565 25.6 106.918 25.6 106.918s-6.024 12.047-6.024 31.624c0 28.612 16.565 51.2 37.647 51.2 18.070 0 27.106-13.553 27.106-30.118 0-18.071-12.047-45.176-18.071-69.271-4.518-21.082 10.541-37.647 31.624-37.647 37.647 0 61.741 48.188 61.741 103.906 0 43.671-28.612 75.294-81.317 75.294-60.236 0-96.376-45.177-96.376-94.87 0-16.565 4.518-28.612 13.553-39.153 3.012-4.517 4.518-6.024 3.012-10.541-1.506-3.012-3.012-12.047-4.518-15.059-1.506-4.517-6.024-6.024-10.541-4.517-27.106 12.047-40.659 40.659-40.659 75.294 0 55.718 46.683 123.483 140.047 123.483 75.294 0 124.988-54.212 124.988-112.941 0-76.8-42.164-135.529-105.412-135.529-21.082 0-40.659 12.047-48.188 24.094 0 0-12.047-45.176-13.553-54.212-4.518-15.059-12.047-30.118-19.577-42.164 18.071-4.517 36.141-7.529 55.717-7.529 108.423 0 197.27 87.341 197.27 197.271 0 108.423-88.847 195.764-197.27 195.764z" />
<glyph unicode="&#xe615;" d="M60.236 291.764h60.236c33.13 0 46.683-21.082 46.683-43.671 0-22.588-13.553-43.671-46.683-43.671h-30.118v-48.188h-30.117v135.529zM90.353 228.518h22.588c13.553 0 25.6 3.012 25.6 19.577s-12.047 19.577-25.6 19.577h-22.588v-39.153zM186.73 291.764h72.282c24.094 0 39.153-16.565 39.153-37.647 0-16.565-6.024-27.106-21.082-33.13v0c15.059-3.012 18.070-18.070 19.577-31.623 0-9.036 0-24.094 6.024-31.623h-30.118c-3.012 9.036-3.012 21.082-4.517 31.623-1.506 13.553-7.529 21.082-22.588 21.082h-30.118v-52.706h-30.118v134.024zM216.847 231.53h33.13c13.553 0 21.083 6.024 21.083 19.577s-7.529 18.071-21.083 18.071h-33.13v-37.647zM384 294.776c42.164 0 66.259-31.623 66.259-70.776s-24.094-70.776-66.259-70.776c-42.164 0-66.259 31.623-66.259 70.776 0 40.659 24.094 70.776 66.259 70.776zM384 178.824c27.106 0 36.141 22.588 36.141 45.177 0 24.094-10.541 46.682-36.141 46.682-27.106 0-36.141-22.588-36.141-46.682 0-22.588 9.036-45.177 36.141-45.177z" />
<glyph unicode="&#xe616;" d="M99.388 141.176l-31.624-103.906 105.412 30.118 210.823 210.824-73.788 73.788-210.823-210.824zM304.188 276.706l-170.165-170.165-19.576 19.577 170.164 170.165 19.577-19.577zM444.236 338.447l-49.694-49.694-73.788 73.788 49.694 49.694 73.788-73.788z" />
<glyph unicode="&#xe617;" d="M85.835 377.6c-13.553-18.071-43.67-99.388 85.835-231.906 137.036-140.047 225.882-109.93 240.941-94.87l-91.859 91.859c-13.553-12.047-30.118-1.506-61.741 24.094-21.083 16.565-45.177 40.659-66.259 66.259-15.059 18.071-27.106 37.647-13.553 51.2l-93.365 93.365zM445.741 83.953c6.024 6.024 6.024 15.059 0 21.082v0c0 0-72.283 70.776-72.283 70.776-6.024 6.024-15.059 6.024-21.082 0l-24.094-27.106 91.859-91.859c0 0 25.6 27.106 25.6 27.106v0zM212.329 315.859c6.024 6.024 6.024 15.059 0 21.082v0c0 0-73.788 73.788-73.788 73.788-6.024 6.024-15.059 6.024-21.082 0l-24.094-27.106 94.871-93.365c-1.506 0 24.094 25.6 24.094 25.6v0z" />
<glyph unicode="&#xe618;" d="M243.953 169.788v97.882c0 16.565-7.53 27.106-24.094 27.106-15.059 0-28.612-10.541-34.636-19.577v-105.412h-33.13v97.882c0 16.565-7.53 27.106-24.094 27.106-13.553 0-27.106-10.541-34.636-19.577v-103.906h-33.13v150.588h33.13v-22.588c6.023 9.036 25.6 24.094 48.188 24.094s36.141-10.541 40.659-27.106c9.036 13.553 28.612 27.106 51.2 27.106 27.106 0 43.671-15.059 43.671-45.176v-108.424h-33.13zM313.224 141.176c3.012-1.506 9.036-3.012 12.047-3.012 10.541 0 16.565 3.012 21.082 13.553l7.529 16.565-61.741 152.094h34.635l43.671-112.941 43.671 112.941h37.647l-72.283-177.694c-10.541-25.6-28.612-33.13-51.2-33.13-4.517 0-13.553 1.506-18.070 1.506l3.012 30.118z" />
<glyph unicode="&#xe619;" d="M463.812 342.964c0-15.059-12.047-27.106-25.6-27.106h-364.423c-13.553 0-25.6 12.047-25.6 27.106v0c0 15.059 12.047 27.106 25.6 27.106h365.93c13.553 0 24.094-12.047 24.094-27.106v0zM463.812 214.964c0-15.059-12.047-27.106-25.6-27.106h-364.423c-13.553 0-25.6 12.047-25.6 27.106v0c0 15.059 12.047 27.106 25.6 27.106h365.93c13.553 0 24.094-12.047 24.094-27.106v0zM463.812 86.964c0-15.059-12.047-27.106-25.6-27.106h-364.423c-13.553 0-25.6 12.047-25.6 27.106v0c0 15.059 12.047 27.106 25.6 27.106h365.93c13.553 0 24.094-12.047 24.094-27.106v0z" />
<glyph unicode="&#xe61a;" d="M275.577 376.094c-15.059-15.059-24.094-34.636-27.106-54.212-7.53-19.577-19.577-39.153-36.141-54.212-18.071-18.071-40.659-31.624-63.247-39.153v0c-18.071-3.012-34.636-12.047-48.188-25.6-36.141-36.141-36.141-96.376 0-132.518 36.141-36.141 96.376-36.141 132.517 0 13.553 13.553 22.588 31.623 25.6 49.694l3.012 3.012c7.529 21.082 19.577 40.659 36.141 57.224s36.141 28.612 57.224 36.141v0c18.070 3.012 36.141 12.047 49.694 25.6 36.141 36.141 36.141 96.376 0 132.518-33.13 37.647-91.859 37.647-129.506 1.506zM198.776 106.541c-16.565-16.565-43.671-16.565-60.236 0-16.564 16.565-16.564 43.671 0 60.236 16.565 16.565 43.671 16.565 60.236 0 16.565-16.565 16.565-43.671 0-60.236zM373.459 279.717c-16.565-16.564-43.671-16.564-60.236 0-16.565 16.565-16.565 43.671 0 60.236 16.565 16.565 43.671 16.565 60.236 0s16.565-43.67 0-60.236z" />
<glyph unicode="&#xe61b;" d="M60.236 181.836h179.2v-153.6h-179.2v153.6zM60.236 412.236h179.2v-153.6h-179.2v153.6zM292.141 412.236h153.6v-51.2h-153.6v51.2zM292.141 309.836h153.6v-51.2h-153.6v51.2zM292.141 79.435h153.6v-51.2h-153.6v51.2zM292.141 181.836h153.6v-51.2h-153.6v51.2z" />
<glyph unicode="&#xe61c;" d="M451.764 224c0-108.423-87.341-195.764-195.764-195.764s-195.764 87.341-195.764 195.764c0 108.423 87.341 195.764 195.764 195.764 108.423 0 195.764-87.341 195.764-195.764zM298.164 150.212c-7.529-13.553-13.553-22.588-18.070-27.106-4.517-4.517-9.036-7.529-13.553-7.529-1.506 0-3.012 1.506-4.517 3.012-1.506 1.506-1.506 3.012-1.506 6.024 0 4.517 1.506 9.036 3.012 16.565l36.141 94.87c3.012 9.036 4.517 18.071 4.517 25.6s-3.012 15.059-10.541 19.577c-6.024 4.517-15.059 7.529-25.6 7.529-13.553 0-28.612-6.024-42.165-16.565-15.059-10.541-25.6-27.106-34.636-46.683h19.577c3.012 6.024 7.53 13.553 13.553 21.083s12.047 12.047 16.565 12.047c1.506 0 3.012 0 4.518-1.506 1.506-1.506 1.506-3.012 1.506-4.517 0-3.012-1.506-7.53-4.518-15.059l-28.612-79.812c-6.024-15.059-9.036-27.106-9.036-36.141s3.012-16.565 9.036-22.588c6.024-6.024 16.565-9.036 28.612-9.036 19.576 0 34.636 7.529 46.682 21.082 12.047 13.553 21.082 27.106 27.106 40.659h-18.070zM317.741 356.517c-3.012 4.517-6.024 7.53-10.541 10.541-4.517 3.012-9.036 4.518-15.059 4.518-9.036 0-15.059-3.012-21.082-9.036-6.024-6.024-9.036-12.047-9.036-21.083 0-7.529 3.012-15.059 9.036-21.082 6.024-6.024 12.047-9.036 21.082-9.036 7.529 0 15.059 3.012 21.082 9.036 6.024 6.024 9.036 13.553 9.036 21.082 0 6.024-1.506 10.541-4.517 15.059z" />
<glyph unicode="&#xe61d;" d="M60.236 132.141h103.906v-103.906h-103.906v103.906zM60.236 275.2h103.906v-103.906h-103.906v103.906zM60.236 418.259h103.906v-103.906h-103.906v103.906zM203.294 418.259h103.906v-103.906h-103.906v103.906zM203.294 275.2h103.906v-103.906h-103.906v103.906zM203.294 132.141h103.906v-103.906h-103.906v103.906zM346.353 132.141h103.906v-103.906h-103.906v103.906zM346.353 275.2h103.906v-103.906h-103.906v103.906zM346.353 418.259h103.906v-103.906h-103.906v103.906z" />
<glyph unicode="&#xe61e;" d="M399.059 418.259h-24.094v-66.259h-67.764v-24.094h67.764v-67.764h24.094v67.764h66.259v24.094h-66.259zM248.47 198.4c-25.6 18.070-30.118 25.6-30.118 33.13s0 13.553 18.071 30.118c18.071 16.565 34.635 34.636 34.635 67.764 0 48.188-31.624 69.271-31.624 69.271l30.117 1.506 30.118 18.070c0 0-58.73 0-118.964 0-61.741 0-106.918-46.682-106.918-97.882 0-36.141 30.117-78.306 90.353-78.306 6.024 0 10.541 1.506 10.541 1.506s-3.012-7.53-3.012-18.071c0-16.565 15.059-33.13 15.059-33.13s-138.541 0-138.541-88.847c0-54.212 60.236-73.788 109.929-73.788 49.694 0 134.024 27.106 134.024 94.87-1.506 31.623-18.070 57.224-43.671 73.788zM182.212 257.13c-36.141 0-64.753 54.212-64.753 87.341 0 33.13 16.564 55.717 45.176 55.717 28.612 0 63.247-33.13 63.247-93.364 0-21.083-7.53-49.694-43.671-49.694zM179.2 50.824c-16.565 0-87.341 6.024-87.341 63.247s82.824 61.741 91.859 61.741c9.036 0 18.071-1.506 18.071-1.506 25.6-22.588 52.706-33.13 52.706-69.27 0-49.694-58.73-54.212-75.294-54.212z" />
<glyph unicode="&#xe61f;" d="M161.13 108.047c-4.518 0-7.53 0-12.047 0s-34.636-1.506-57.224-9.036c-6.023-3.012-19.576-7.529-30.117-18.070v-52.706h159.624c0 3.012 0 4.517 0 7.529 0 28.612-18.071 42.164-60.236 72.283zM121.977 352c-13.553 0-30.117-7.529-37.647-18.071-9.035-12.047-12.047-25.6-12.047-40.659 0-36.141 21.082-97.882 67.764-97.882 13.553 0 28.612 6.024 37.647 15.059 12.047 12.047 13.553 30.118 13.553 39.153 0 42.165-24.094 102.4-69.27 102.4zM60.236 109.553c30.118 10.541 61.741 13.553 81.317 15.059-6.024 9.036-15.059 19.577-15.059 36.141 0 9.036 3.012 15.059 6.024 21.082-6.023 0-12.047-1.506-18.070-1.506-21.082 0-39.153 6.024-52.706 15.059v-85.835zM451.764 299.294v120.471h-391.529v-76.8c30.118 24.094 66.259 28.612 94.87 28.612h112.941l-34.636-19.577h-33.13c12.047-10.541 39.153-31.623 39.153-73.788 0-40.659-22.588-60.236-45.177-78.306-7.53-7.529-15.059-15.059-15.059-27.106 0-12.047 7.53-18.070 13.553-24.094l19.577-15.059c24.094-19.577 45.176-39.153 45.176-76.8 0-9.036-1.506-19.577-4.518-28.612h198.777v243.953h-73.788v-73.788h-27.106v73.788h-73.788v27.106h73.788v72.283h27.106v-72.283h73.788z" />
<glyph unicode="&#xe620;" d="M85.835 73.412h340.329c13.553 0 24.094 10.541 24.094 24.094v204.8l-194.259-126.494-194.259 126.494v-204.8c0-13.553 10.541-24.094 24.094-24.094zM256 207.435l194.259 126.494c0 13.553-10.541 24.094-24.094 24.094h-340.329c-13.553 1.506-24.094-9.036-24.094-22.588v0l194.259-128z" />
<glyph unicode="&#xe621;" d="M216.847 419.764v-52.706h-103.906v-103.906h-52.706v156.612zM451.764 419.764v-156.612h-52.706v103.906h-103.906v52.706zM451.764 186.353v-156.612h-156.612v51.2h103.906v105.412zM216.847 80.941v-51.2h-156.612v156.612h52.706v-105.412z" />
<glyph unicode="&#xe622;" d="M240.941 26.729l-73.788 191.247-57.224 158.118-12.047 33.13 30.118 10.541 9.036-25.6c16.565 9.036 39.153 18.071 60.236 18.071 75.294-1.506 93.364-36.141 168.659-28.612 24.094 1.506 40.659 7.53 54.212 15.059-4.517-31.624-24.094-91.859-54.212-109.93-63.247-39.153-84.329 0-141.553-18.070-15.059-4.518-27.106-12.047-36.141-21.083l85.835-221.364z" />
<glyph unicode="&#xe623;" d="M46.682 342.964c0-15.059 12.047-27.106 25.6-27.106h45.177c13.553 0 25.6 12.047 25.6 27.106s-12.047 27.106-25.6 27.106h-45.177c-13.553 0-25.6-12.047-25.6-27.106zM143.059 214.964c0 15.059-12.047 27.106-25.6 27.106h-45.177c-13.553 0-25.6-12.047-25.6-27.106s12.047-27.106 25.6-27.106h45.177c13.553 0 25.6 12.047 25.6 27.106zM143.059 86.964c0 15.059-12.047 27.106-25.6 27.106h-45.177c-13.553 0-25.6-12.047-25.6-27.106s12.047-27.106 25.6-27.106h45.177c13.553 0 25.6 12.047 25.6 27.106zM183.718 342.964c0-15.059 12.047-27.106 25.6-27.106h230.4c13.553 0 25.6 12.047 25.6 27.106s-12.047 27.106-25.6 27.106h-230.4c-15.059 0-25.6-12.047-25.6-27.106zM465.317 214.964c0 15.059-12.047 27.106-25.6 27.106h-230.4c-13.553 0-25.6-12.047-25.6-27.106s12.047-27.106 25.6-27.106h230.4c13.553 0 25.6 12.047 25.6 27.106zM465.317 86.964c0 15.059-12.047 27.106-25.6 27.106h-230.4c-13.553 0-25.6-12.047-25.6-27.106s12.047-27.106 25.6-27.106h230.4c13.553 0 25.6 12.047 25.6 27.106z" />
<glyph unicode="&#xe624;" d="M134.024 320.376c-4.518 0-9.035 3.012-9.035 7.53s3.012 9.036 7.529 9.036c4.518 0 9.036-3.012 9.036-7.529 0-4.518-3.012-9.036-7.53-9.036zM411.106 105.036c-12.047 15.059-16.565 34.635-6.024 48.188 6.024 9.036 10.541 24.094 10.541 36.141 0 22.588-25.6 55.718-61.741 63.247-22.588 4.517-46.683 4.517-64.753 7.53-52.706 7.529-67.764 28.612-67.764 49.694 0 25.6 24.094 33.13 34.635 33.13 42.164 6.024 94.87-24.094 132.518-79.812-22.588 70.776-70.776 105.412-126.494 121.976 57.224-4.517 93.365-31.623 131.012-79.812-28.612 88.847-105.412 112.941-149.083 115.953-54.212 3.012-96.376-12.047-128-58.729-6.023-9.036-10.541-30.118-12.047-39.153-1.506-9.036-7.529-27.106-10.541-33.13 3.012-4.518 7.529-9.036 12.047-10.541 0 0-3.012-4.517 1.506-16.565 3.012-7.53 9.035-12.047 9.035-21.083 0-7.53-6.023-21.083-6.023-21.083s16.564 10.541 19.577 21.083c3.012 9.036-1.506 12.047 0 21.083 0 1.506 1.506 9.036 7.53 12.047 3.012 1.506 6.024 3.012 10.541 1.506 7.53-1.506 12.047-9.036 10.541-16.565-3.012-10.541-12.047-30.118-19.577-49.694-10.541-28.612-6.024-49.694 16.565-76.8-1.506-40.659-12.047-84.329-10.541-94.87 0-4.517 4.518-6.024 9.036-7.529h25.6l3.012 12.047c19.577 88.847 73.788 109.93 128 103.906 34.635-4.517 75.294-43.671 70.776-100.894 0-4.517-1.506-9.036 0-12.047 1.506-4.517 4.517-4.517 9.036-6.024h27.106l4.517 6.024c-7.529 9.036-15.059 49.694-10.541 70.776z" />
<glyph unicode="&#xe625;" d="M60.236 418.259v-391.529h391.529v391.529h-391.529zM200.282 224v42.164h24.094v27.106c0 19.577 9.036 51.2 51.2 51.2h37.647v-40.659c0 0-22.588 0-27.106 0-4.517 0-10.541-1.506-10.541-12.047v-25.6h37.647l-6.024-42.165h-33.13c0-54.212 0-120.47 0-120.47h-49.694c0 0 0 66.259 0 120.471h-24.094z" />
<glyph unicode="&#xe626;" d="M78.306 371.577v-97.882l97.882 97.882zM343.341 371.577l-61.741-61.741h99.388v-27.106h-124.988l-27.106-27.106h153.6v-27.106h-180.706l-58.73-58.73-64.753-18.070v-43.671h231.906l79.812-79.812v78.306h57.224v265.036h-103.906zM382.494 175.812h-120.471v27.106h120.471v-27.106zM259.376 419.186l47.923-47.909-31.94-31.949-47.923 47.909 31.94 31.949zM268.047 332.423l-48.188 48.188-135.53-135.529-18.070-66.259 67.764 19.577 134.024 134.024zM94.871 236.047l109.93 108.424 12.047-12.047-108.424-108.423-13.553 12.047z" />
<glyph unicode="&#xe627;" d="M368.941 348.988h-61.741c-7.529 0-15.059-9.036-15.059-22.588v-45.176h78.306v-63.247h-78.306v-192.753h-73.788v192.753h-67.764v63.247h66.259v37.647c0 54.212 37.647 97.882 88.847 97.882h61.741v-67.764z" />
<glyph unicode="&#xe628;" d="M75.294 388.141h361.412v-60.236h-361.412v60.236zM75.294 297.788h271.059v-60.236h-271.059v60.236zM75.294 207.435h361.412v-60.236h-361.412v60.236zM75.294 117.082h210.824v-60.236h-210.823v60.236z" />
<glyph unicode="&#xe629;" d="M256 419.764c-108.423 0-195.764-87.341-195.764-195.764s87.341-195.764 195.764-195.764c108.423 0 195.764 87.341 195.764 195.764 0 108.423-88.847 195.764-195.764 195.764zM352.377 156.236l-28.612-28.612-66.259 66.259-66.259-64.753-28.612 28.612 64.753 64.753-64.753 66.259 28.612 28.612 66.259-64.753 64.753 64.753 28.612-28.612-64.753-66.259 66.259-66.259z" />
<glyph unicode="&#xe62a;" d="M418.635 388.141l-237.929-254.494-90.353 82.824-42.164-45.176 88.847-84.329 48.188-45.176 281.6 302.683z" />
<glyph unicode="&#xe62b;" d="M61.741 404.706v-277.082h243.953l82.824-82.823v82.823h60.236v277.082h-387.012z" />
<glyph unicode="&#xe62c;" d="M344.847 400.188h-177.694c-58.73 0-106.918-48.188-106.918-106.918v-153.6c0-58.729 48.188-106.918 106.918-106.918h177.694c58.73 0 106.918 48.188 106.918 106.918v153.6c0 58.73-48.188 106.918-106.918 106.918zM405.082 139.671c0-33.13-27.106-60.236-60.236-60.236h-177.694c-33.13 0-60.236 27.106-60.236 60.236v153.6c0 33.13 27.106 60.236 60.236 60.236h177.694c33.13 0 60.236-27.106 60.236-60.236v-153.6zM305.694 260.141c-22.588 0-40.659-18.070-40.659-40.659s18.070-40.659 40.659-40.659c22.588 0 40.659 18.070 40.659 40.659 0 22.588-18.070 40.659-40.659 40.659zM194.259 306.823c-19.577-12.047-27.106-36.141-15.059-55.717s36.141-27.106 55.718-15.059c19.577 12.047 27.106 36.141 15.059 57.223-12.047 18.071-36.141 25.6-55.718 13.553zM233.412 201.412c-19.577 12.047-45.177 4.517-57.224-15.059s-4.518-45.176 15.059-55.717c19.577-12.047 45.177-4.517 57.224 15.059 12.047 19.577 4.518 45.176-15.059 55.718z" />
<glyph unicode="&#xe62d;" d="M472.847 344.471c0 0 0 0 0 0s0 0 0 0c0 1.506 0 1.506 0 1.506 0 0 0 0 0 0 0 0 0 0 0 0 0 0 0 0 0 0 0 0 0 0 0 0 0 0 0 0 0 0 0 0 0 0 0 0 0 0 0 0 0 0 0 0 0 0 0 0 0 0 0 0 0 0 0 0 0 0 0 0 0 0 0 0 0 0 0 0 0 0 0 0 0 0 0 0 0 0 0 0 0 0 0 0 0 0 0 0 0 0 0 0 0 0 0 0 0 0 0 0 0 0 0 0 0 0 0 0 0 0 0 0 0 0 0 0 0 0 0 0 0 0 0 0 0 0 0 0 0 0 0 0 0 0 0 0 0 0 0 0 0 0 0 0 0 0 0 0 0 0 0 0 0 0 0 0 0 0 0 0 0 0 0 0 0 0 0 0 0 0 0 0 0 0 0 0 0 0 0 0l-341.836 24.094-16.564 42.165c-1.506 3.012-4.517 6.023-9.035 7.529-1.506 0-3.012 1.506-6.023 1.506h-46.682c-7.529 0-13.553-6.024-13.553-13.553s6.023-12.047 12.047-12.047h42.164l85.835-215.341c-9.036-7.529-33.13-28.612-43.671-42.164-10.541-12.047-12.047-28.612-6.024-42.164 4.518-9.036 12.047-16.565 22.588-19.577-7.53-4.517-13.553-13.553-13.553-22.588 0-13.553 12.047-25.6 25.6-25.6 15.059 0 25.6 12.047 25.6 25.6 0 9.036-4.518 16.565-10.541 21.082h186.73c-6.024-4.517-10.541-12.047-10.541-21.082 0-13.553 12.047-25.6 25.6-25.6 15.059 0 25.6 12.047 25.6 25.6 0 9.036-4.517 16.565-10.541 21.082h15.059c7.529 0 12.047 6.024 12.047 12.047 0 7.529-6.024 12.047-12.047 12.047h-249.976c-4.518 0-7.53 3.012-9.036 6.024s-1.506 9.036 3.012 15.059c12.047 15.059 42.165 39.153 45.177 42.164v0l240.941 22.588c7.529 0 15.059 7.529 15.059 15.059l16.565 144.565c0-1.506 0-1.506 0 0 0-1.506 0 0 0 0 0 0 0 0 0 0z" />
<glyph unicode="&#xe62e;" d="M368.941 224c0-62.375-50.565-112.941-112.941-112.941s-112.941 50.565-112.941 112.941c0 62.375 50.565 112.941 112.941 112.941 62.376 0 112.941-50.566 112.941-112.941z" />
<glyph unicode="&#xe62f;" d="M70.776 74.918l185.224 298.164 183.717-298.164z" />
<glyph unicode="&#xe630;" d="M439.717 373.082l-183.718-298.164-185.224 298.164z" />
<glyph unicode="&#xe631;" d="M337.317 324.894c18.070 0 33.13 15.059 33.13 33.13s-15.059 33.13-33.13 33.13c-18.070 0-33.13-15.059-33.13-33.13s15.059-33.13 33.13-33.13zM374.964 217.976l-37.647 69.27c-18.070 30.118-43.671 48.188-73.788 48.188-19.577 0-37.647-9.036-54.212-22.588-15.059-12.047-27.106-28.612-37.647-48.188-7.53-15.059-12.047-31.624-15.059-46.683-6.024 1.506-10.541 1.506-16.565 1.506-45.177 0-79.812-36.141-79.812-79.812 0-45.176 36.141-79.812 79.812-79.812 43.671 0 79.812 36.141 79.812 79.812 0 1.506 0 1.506 0 1.506 18.071 13.553 42.164 43.671 42.164 111.435 0 1.506 0 4.517 0 6.024 0 9.036 4.517 16.565 10.541 22.588 1.506 1.506 6.024 4.517 6.024 4.517 4.517 1.506 9.036 3.012 13.553 3.012 19.577 0 28.612-19.577 28.612-19.577l27.106-51.2c-34.635-9.036-61.741-40.659-61.741-78.306 0-45.176 36.141-79.812 79.812-79.812 45.176 0 79.812 36.141 79.812 79.812 4.517 40.659-28.612 75.294-70.776 78.306zM141.553 80.941c-31.624 0-57.224 25.6-57.224 57.224s25.6 57.224 57.224 57.224c4.518 0 10.541-1.506 15.059-3.012 1.506-25.6 10.541-46.683 28.612-55.717 7.53-6.024 13.553-6.024 13.553-6.024-4.518-28.612-27.106-49.694-57.224-49.694zM239.435 213.459c-1.506-21.082-16.565-36.141-31.624-34.635-15.059 1.506-27.106 19.577-25.6 39.153 1.506 21.083 15.059 36.141 31.624 34.636 16.565-1.506 27.106-18.071 25.6-39.153zM370.447 80.941c-31.623 0-57.224 25.6-57.224 57.224s25.6 57.224 57.224 57.224c31.623 0 57.224-25.6 57.224-57.224 0-31.623-25.6-57.224-57.224-57.224z" />
<glyph unicode="&#xe632;" d="M60.236 145.694l37.647-37.647 158.118 158.118 158.118-158.118 36.141 37.647-194.259 194.259z" />
<glyph unicode="&#xe633;" d="M176.188 419.764l-36.141-37.647 158.117-158.118-158.118-158.118 36.141-36.141 195.765 194.259z" />
<glyph unicode="&#xe634;" d="M335.812 28.236l36.141 37.647-158.118 158.118 158.118 158.118-36.141 37.647-195.764-195.764z" />
<glyph unicode="&#xe635;" d="M451.764 303.812l-37.647 36.141-158.118-158.117-158.118 158.118-36.141-36.141 194.259-195.764z" />
<glyph unicode="&#xe636;" d="M292.141 28.236h-70.776v159.624h-159.624v70.776h159.624v159.623h70.776v-159.623h159.623v-70.776h-159.624v-159.624z" />
<glyph unicode="&#xe637;" d="M430.118 58.353h-36.141v49.694h-49.694v36.141h49.694v49.694h36.141v-49.694h49.694v-36.141h-49.694v-49.694zM326.212 136.659v24.094h48.188v48.188h70.776c0 7.529 1.506 15.059 1.506 22.588 0 40.659-9.036 66.259-10.541 72.282-6.024 24.094-24.094 60.236-46.683 60.236h6.024c0 0-51.2 10.541-138.541 10.541s-138.541-10.541-138.541-10.541h3.012c-22.588 0-40.659-36.141-46.683-60.236-1.506-6.024-10.541-31.623-10.541-72.282 0-46.682 10.541-73.788 10.541-73.788v0c6.023-22.588 24.094-57.224 43.671-58.73 10.541-1.506 60.236-10.541 137.036-10.541 27.106 0 51.2 1.506 70.776 3.012v45.176zM222.306 175.812c-9.036-4.517-18.071 0-18.071 10.541v99.388c0 10.541 7.53 15.059 18.071 12.047l99.388-51.2c9.036-4.518 9.036-12.047 0-16.565l-99.388-54.212z" />
<glyph unicode="&#xe638;" d="M254.45 284.359c-32.094 0-56.894-24.8-56.894-55.436s24.8-56.894 56.894-56.894c30.635 0 56.894 24.8 56.894 56.894 0 32.094-24.8 55.435-56.894 55.435zM248.614 234.759c-8.753-7.294-20.423-7.294-26.259 0s-2.918 18.965 5.835 24.8c8.753 7.294 20.423 7.294 26.259 0 5.836-5.835 2.918-17.506-5.835-24.8zM321.556 160.359h51.059v51.059h61.27v96.282c0 11.671-10.212 21.882-21.882 21.882h-61.271l-24.8 43.764h-141.506l-21.882-43.764h-64.189c-11.671 0-21.882-10.212-21.882-21.882v-186.729c0-11.671 10.212-21.882 21.882-21.882h223.2v61.271zM362.403 294.571c0 5.835 4.377 11.67 11.671 11.67h24.8c5.836 0 11.671-4.376 11.671-11.67v-13.13c0-5.836-4.377-11.671-11.671-11.671h-24.8c-5.836 0-11.671 4.377-11.671 11.671v13.13zM318.639 166.194c-16.047-17.506-39.389-27.718-65.647-27.718-30.636 0-58.353 16.047-74.4 39.389v0c-2.918 2.918-4.376 7.294-7.294 11.671 0 0 0 1.459 0 1.459-1.459 4.377-2.918 7.294-4.376 11.671 0 0 0 0 0 0-1.459 4.377-1.459 8.753-2.918 11.671 0 1.459 0 1.459 0 2.918 0 4.377-1.459 8.753-1.459 13.13 0 49.6 40.847 90.447 90.447 90.447 49.6 0 90.447-40.847 90.447-90.447 0-4.376 0-8.753-1.459-13.13 0-1.459 0-1.459 0-2.918 0-4.377-1.459-8.753-2.918-11.671 0 0 0 0 0 0-1.459-4.377-2.918-7.294-4.377-11.671 0 0 0-1.459 0-1.459-1.459-4.377-4.377-7.294-7.294-11.671v0c-1.459-4.377-4.377-8.753-8.753-11.671zM432.426 48.029h-37.93v51.059h-51.059v37.93h51.059v51.059h37.93v-51.059h51.059v-37.93h-51.059v-51.059z" />
<glyph unicode="&#xe639;" d="M256 278.212c-34.636 0-61.741-27.106-61.741-60.236 0-34.635 28.612-61.741 61.741-61.741s61.741 28.612 61.741 61.741c0 33.13-27.106 60.236-61.741 60.236zM248.47 222.494c-10.541-7.529-22.588-7.529-28.612 0-6.024 7.53-3.012 19.577 7.53 28.612 10.541 7.53 22.588 7.53 28.612 0 6.024-7.53 3.012-21.083-7.53-28.612zM427.671 326.4h-67.764l-27.106 48.188h-155.106l-24.094-48.188h-69.27c-13.553 0-24.094-10.541-24.094-24.094v-204.8c0-13.553 10.541-24.094 24.094-24.094h341.836c13.553 0 24.094 10.541 24.094 24.094v204.8c1.506 13.553-9.036 24.094-22.588 24.094zM355.388 202.918c0-1.506 0-1.506 0-3.012-1.506-4.517-1.506-9.036-3.012-13.553 0 0 0 0 0 0-1.506-4.517-3.012-9.036-4.517-13.553 0 0 0-1.506 0-1.506-1.506-4.517-4.517-7.529-7.529-12.047v0c-18.070-25.6-48.188-42.164-82.824-42.164s-63.247 16.565-82.823 42.164v0c-3.012 4.517-4.518 7.529-7.53 12.047 0 0 0 1.506 0 1.506-1.506 4.517-4.518 9.036-4.518 13.553 0 0 0 0 0 0-1.506 4.517-3.012 9.036-3.012 13.553 0 1.506 0 1.506 0 3.012 0 4.517-1.506 9.036-1.506 13.553 0 55.717 45.177 99.388 99.388 99.388 55.717 0 99.388-45.177 99.388-99.388-1.506-4.517-1.506-9.036-1.506-13.553zM427.671 273.694c0-6.024-6.024-12.047-12.047-12.047h-27.106c-6.024 0-12.047 6.024-12.047 12.047v13.553c0 6.024 6.024 12.047 12.047 12.047h27.106c6.024 0 12.047-6.024 12.047-12.047v-13.553z" />
</font>
</defs>
</svg>
