<?xml version="1.0" encoding="utf-8"?>
<!-- Generator: Adobe Illustrator 17.0.0, SVG Export Plug-In . SVG Version: 6.00 Build 0)  -->
<!DOCTYPE svg PUBLIC "-//W3C//DTD SVG 1.1//EN" "http://www.w3.org/Graphics/SVG/1.1/DTD/svg11.dtd">
<svg version="1.1" id="Layer_1" xmlns="http://www.w3.org/2000/svg" xmlns:xlink="http://www.w3.org/1999/xlink" x="0px" y="0px"
	 width="247.5px" height="63.167px" viewBox="0 0 247.5 63.167" enable-background="new 0 0 247.5 63.167" xml:space="preserve">
<g>
	<g>
		<path fill="#CB2026" d="M48.595,0.703H18.691c-9.904,0-17.962,8.057-17.962,17.96v25.743c0,9.902,8.058,17.959,17.962,17.959
			h29.904c9.904,0,17.963-8.057,17.963-17.959V18.663C66.558,8.76,58.499,0.703,48.595,0.703z M58.775,44.406
			c0,5.611-4.566,10.177-10.18,10.177H18.691c-5.612,0-10.179-4.565-10.179-10.177V18.663c0-5.611,4.566-10.177,10.179-10.177
			h29.904c5.613,0,10.18,4.565,10.18,10.177V44.406z"/>
	</g>
	<g>
		<path fill="#6A6A6D" d="M77.33,15.061v-0.048c0-4.789,3.58-8.756,8.562-8.756c3.071,0,4.91,1.089,6.604,2.686l-1.307,1.402
			c-1.428-1.354-3.023-2.322-5.322-2.322c-3.749,0-6.555,3.048-6.555,6.942v0.048c0,3.919,2.829,6.99,6.555,6.99
			c2.322,0,3.846-0.895,5.466-2.442l1.259,1.233c-1.767,1.79-3.7,2.975-6.772,2.975C80.933,23.769,77.33,19.923,77.33,15.061z"/>
		<path fill="#6A6A6D" d="M94.696,15.061v-0.048c0-4.668,3.507-8.756,8.66-8.756c5.151,0,8.609,4.04,8.609,8.708
			c0.025,0.024,0.025,0.024,0,0.048c0,4.669-3.507,8.756-8.658,8.756C98.154,23.769,94.696,19.729,94.696,15.061z M109.982,15.061
			v-0.048c0-3.846-2.806-6.99-6.675-6.99c-3.871,0-6.627,3.096-6.627,6.942v0.048c0,3.847,2.804,6.99,6.676,6.99
			C107.225,22.003,109.982,18.907,109.982,15.061z"/>
		<path fill="#6A6A6D" d="M116.004,6.547h1.936l6.168,9.24l6.168-9.24h1.936v16.932h-1.912V9.764l-6.168,9.07h-0.097l-6.168-9.046
			v13.69h-1.862V6.547z"/>
		<path fill="#6A6A6D" d="M137,6.547h6.336c3.822,0,6.338,2.032,6.338,5.37v0.048c0,3.653-3.047,5.539-6.652,5.539h-4.111v5.975H137
			V6.547z M143.094,15.763c2.807,0,4.645-1.499,4.645-3.726v-0.048c0-2.419-1.814-3.677-4.547-3.677h-4.281v7.45H143.094z"/>
		<path fill="#6A6A6D" d="M153.157,6.547h12.238v1.741h-10.326v5.781h9.238v1.742h-9.238v5.925h10.447v1.742h-12.359V6.547z"/>
		<path fill="#6A6A6D" d="M173.836,8.312h-5.684V6.547h13.303v1.766h-5.684v15.166h-1.936V8.312z"/>
		<path fill="#6A6A6D" d="M185.205,6.547h1.91v16.932h-1.91V6.547z"/>
		<path fill="#6A6A6D" d="M196.549,8.312h-5.684V6.547h13.303v1.766h-5.684v15.166h-1.936V8.312z"/>
		<path fill="#6A6A6D" d="M207.916,6.547h1.912v16.932h-1.912V6.547z"/>
		<path fill="#6A6A6D" d="M213.334,6.547h2.129l6.021,14.586l6.047-14.586h2.057L222.309,23.6h-1.693L213.334,6.547z"/>
		<path fill="#6A6A6D" d="M232.926,6.547h12.238v1.741h-10.328v5.781h9.24v1.742h-9.24v5.925h10.449v1.742h-12.359V6.547z"/>
	</g>
	<g>
		<path fill="#6A6A6D" d="M77.317,42.065v-0.081c0-8.008,5.985-14.641,14.317-14.641c5.137,0,8.212,1.82,11.041,4.489l-2.184,2.346
			c-2.386-2.265-5.056-3.883-8.897-3.883c-6.269,0-10.961,5.097-10.961,11.608v0.08c0,6.553,4.732,11.689,10.961,11.689
			c3.883,0,6.432-1.497,9.14-4.086l2.104,2.064c-2.952,2.993-6.188,4.975-11.324,4.975C83.344,56.626,77.317,50.195,77.317,42.065z"
			/>
		<path fill="#6A6A6D" d="M116.87,44.938l-11.769-17.108h3.883l9.547,14.155l9.626-14.155h3.721l-11.769,17.067v11.244h-3.237
			V44.938z"/>
		<path fill="#6A6A6D" d="M133.289,42.065v-0.081c0-8.008,5.986-14.641,14.318-14.641c5.137,0,8.211,1.82,11.041,4.489l-2.184,2.346
			c-2.387-2.265-5.057-3.883-8.898-3.883c-6.27,0-10.961,5.097-10.961,11.608v0.08c0,6.553,4.732,11.689,10.961,11.689
			c3.883,0,6.432-1.497,9.141-4.086l2.103,2.064c-2.953,2.993-6.187,4.975-11.324,4.975
			C139.317,56.626,133.289,50.195,133.289,42.065z"/>
		<path fill="#6A6A6D" d="M164.391,27.829h3.195v25.358h15.936v2.953h-19.131V27.829z"/>
		<path fill="#6A6A6D" d="M189.709,27.829h3.195v28.312h-3.195V27.829z"/>
		<path fill="#6A6A6D" d="M199.336,52.016l1.98-2.346c2.953,2.669,5.783,4.004,9.707,4.004c3.803,0,6.311-2.022,6.311-4.813v-0.081
			c0-2.629-1.416-4.125-7.361-5.379c-6.512-1.416-9.506-3.518-9.506-8.17V35.15c0-4.448,3.924-7.725,9.303-7.725
			c4.125,0,7.078,1.173,9.949,3.478l-1.859,2.468c-2.629-2.144-5.258-3.074-8.17-3.074c-3.682,0-6.027,2.023-6.027,4.57v0.081
			c0,2.67,1.457,4.166,7.686,5.5c6.309,1.376,9.221,3.682,9.221,8.009v0.081c0,4.854-4.045,8.008-9.666,8.008
			C206.412,56.545,202.733,55.049,199.336,52.016z"/>
		<path fill="#6A6A6D" d="M233.961,30.781h-9.506v-2.952h22.246v2.952h-9.506v25.359h-3.234V30.781z"/>
	</g>
	<g>
		<g>
			<g>
				<path fill="#6A6A6D" d="M41.866,38.06c-3.842,0-6.951-3.117-6.951-6.958s3.109-6.953,6.951-6.953
					c3.843,0,6.952,3.112,6.952,6.953S45.708,38.06,41.866,38.06z"/>
			</g>
			<g>
				<path fill="#717074" d="M41.866,38.06c-3.842,0-6.951-3.117-6.951-6.958s3.109-6.953,6.951-6.953
					c3.843,0,6.952,3.112,6.952,6.953S45.708,38.06,41.866,38.06z"/>
			</g>
		</g>
		<path fill="#8E8F92" d="M32.554,18.911c1.921,3.328,0.779,7.582-2.548,9.5c-3.326,1.923-7.578,0.78-9.498-2.542
			c-1.923-3.328-0.779-7.582,2.549-9.501C26.379,14.446,30.632,15.586,32.554,18.911z"/>
		<path fill="#B7B9BA" d="M20.328,36.521c1.919-3.328,6.171-4.465,9.5-2.546c3.32,1.922,4.467,6.17,2.54,9.501
			c-1.919,3.325-6.171,4.465-9.498,2.54C19.547,44.101,18.404,39.847,20.328,36.521z"/>
	</g>
</g>
</svg>
